#usda 1.0
(
    defaultPrim = "World"
    metersPerUnit = 1
    upAxis = "Z"
)

def Xform "World"
{
    def Xform "Person" (
        prepend references = @https://omniverse-content-production.s3-us-west-2.amazonaws.com/Assets/Isaac/6.0/Isaac/People/Characters/original_male_adult_medical_01/male_adult_medical_01.usd@
    )
    {
        def SkelAnimation "StaticStandingPose"
        {
            uniform token[] joints = ["RL_BoneRoot", "RL_BoneRoot/Hip", "RL_BoneRoot/Hip/Pelvis", "RL_BoneRoot/Hip/Pelvis/L_Thigh", "RL_BoneRoot/Hip/Pelvis/L_Thigh/L_Calf", "RL_BoneRoot/Hip/Pelvis/L_Thigh/L_Calf/L_Foot", "RL_BoneRoot/Hip/Pelvis/L_Thigh/L_Calf/L_Foot/L_ToeBaseShareBone", "RL_BoneRoot/Hip/Pelvis/L_Thigh/L_Calf/L_Foot/L_ToeBase", "RL_BoneRoot/Hip/Pelvis/L_Thigh/L_Calf/L_Foot/L_ToeBase/L_PinkyToe1", "RL_BoneRoot/Hip/Pelvis/L_Thigh/L_Calf/L_Foot/L_ToeBase/L_RingToe1", "RL_BoneRoot/Hip/Pelvis/L_Thigh/L_Calf/L_Foot/L_ToeBase/L_MidToe1", "RL_BoneRoot/Hip/Pelvis/L_Thigh/L_Calf/L_Foot/L_ToeBase/L_IndexToe1", "RL_BoneRoot/Hip/Pelvis/L_Thigh/L_Calf/L_Foot/L_ToeBase/L_BigToe1", "RL_BoneRoot/Hip/Pelvis/L_Thigh/L_Calf/L_CalfTwist01", "RL_BoneRoot/Hip/Pelvis/L_Thigh/L_Calf/L_CalfTwist01/L_CalfTwist02", "RL_BoneRoot/Hip/Pelvis/L_Thigh/L_Calf/L_KneeShareBone", "RL_BoneRoot/Hip/Pelvis/L_Thigh/L_ThighTwist01", "RL_BoneRoot/Hip/Pelvis/L_Thigh/L_ThighTwist01/L_ThighTwist02", "RL_BoneRoot/Hip/Pelvis/R_Thigh", "RL_BoneRoot/Hip/Pelvis/R_Thigh/R_Calf", "RL_BoneRoot/Hip/Pelvis/R_Thigh/R_Calf/R_KneeShareBone", "RL_BoneRoot/Hip/Pelvis/R_Thigh/R_Calf/R_Foot", "RL_BoneRoot/Hip/Pelvis/R_Thigh/R_Calf/R_Foot/R_ToeBase", "RL_BoneRoot/Hip/Pelvis/R_Thigh/R_Calf/R_Foot/R_ToeBase/R_BigToe1", "RL_BoneRoot/Hip/Pelvis/R_Thigh/R_Calf/R_Foot/R_ToeBase/R_PinkyToe1", "RL_BoneRoot/Hip/Pelvis/R_Thigh/R_Calf/R_Foot/R_ToeBase/R_RingToe1", "RL_BoneRoot/Hip/Pelvis/R_Thigh/R_Calf/R_Foot/R_ToeBase/R_IndexToe1", "RL_BoneRoot/Hip/Pelvis/R_Thigh/R_Calf/R_Foot/R_ToeBase/R_MidToe1", "RL_BoneRoot/Hip/Pelvis/R_Thigh/R_Calf/R_Foot/R_ToeBaseShareBone", "RL_BoneRoot/Hip/Pelvis/R_Thigh/R_Calf/R_CalfTwist01", "RL_BoneRoot/Hip/Pelvis/R_Thigh/R_Calf/R_CalfTwist01/R_CalfTwist02", "RL_BoneRoot/Hip/Pelvis/R_Thigh/R_ThighTwist01", "RL_BoneRoot/Hip/Pelvis/R_Thigh/R_ThighTwist01/R_ThighTwist02", "RL_BoneRoot/Hip/Waist", "RL_BoneRoot/Hip/Waist/Spine01", "RL_BoneRoot/Hip/Waist/Spine01/Spine02", "RL_BoneRoot/Hip/Waist/Spine01/Spine02/NeckTwist01", "RL_BoneRoot/Hip/Waist/Spine01/Spine02/NeckTwist01/NeckTwist02", "RL_BoneRoot/Hip/Waist/Spine01/Spine02/NeckTwist01/NeckTwist02/Head", "RL_BoneRoot/Hip/Waist/Spine01/Spine02/NeckTwist01/NeckTwist02/Head/FacialBone", "RL_BoneRoot/Hip/Waist/Spine01/Spine02/NeckTwist01/NeckTwist02/Head/FacialBone/JawRoot", "RL_BoneRoot/Hip/Waist/Spine01/Spine02/NeckTwist01/NeckTwist02/Head/FacialBone/JawRoot/Tongue01", "RL_BoneRoot/Hip/Waist/Spine01/Spine02/NeckTwist01/NeckTwist02/Head/FacialBone/JawRoot/Tongue01/Tongue02", "RL_BoneRoot/Hip/Waist/Spine01/Spine02/NeckTwist01/NeckTwist02/Head/FacialBone/JawRoot/Tongue01/Tongue02/Tongue03", "RL_BoneRoot/Hip/Waist/Spine01/Spine02/NeckTwist01/NeckTwist02/Head/FacialBone/JawRoot/Teeth02", "RL_BoneRoot/Hip/Waist/Spine01/Spine02/NeckTwist01/NeckTwist02/Head/FacialBone/R_Eye", "RL_BoneRoot/Hip/Waist/Spine01/Spine02/NeckTwist01/NeckTwist02/Head/FacialBone/L_Eye", "RL_BoneRoot/Hip/Waist/Spine01/Spine02/NeckTwist01/NeckTwist02/Head/FacialBone/UpperJaw", "RL_BoneRoot/Hip/Waist/Spine01/Spine02/NeckTwist01/NeckTwist02/Head/FacialBone/UpperJaw/Teeth01", "RL_BoneRoot/Hip/Waist/Spine01/Spine02/L_Clavicle", "RL_BoneRoot/Hip/Waist/Spine01/Spine02/L_Clavicle/L_Upperarm", "RL_BoneRoot/Hip/Waist/Spine01/Spine02/L_Clavicle/L_Upperarm/L_Forearm", "RL_BoneRoot/Hip/Waist/Spine01/Spine02/L_Clavicle/L_Upperarm/L_Forearm/L_ForearmTwist01", "RL_BoneRoot/Hip/Waist/Spine01/Spine02/L_Clavicle/L_Upperarm/L_Forearm/L_ForearmTwist01/L_ForearmTwist02", "RL_BoneRoot/Hip/Waist/Spine01/Spine02/L_Clavicle/L_Upperarm/L_Forearm/L_ElbowShareBone", "RL_BoneRoot/Hip/Waist/Spine01/Spine02/L_Clavicle/L_Upperarm/L_Forearm/L_Hand", "RL_BoneRoot/Hip/Waist/Spine01/Spine02/L_Clavicle/L_Upperarm/L_Forearm/L_Hand/L_Pinky1", "RL_BoneRoot/Hip/Waist/Spine01/Spine02/L_Clavicle/L_Upperarm/L_Forearm/L_Hand/L_Pinky1/L_Pinky2", "RL_BoneRoot/Hip/Waist/Spine01/Spine02/L_Clavicle/L_Upperarm/L_Forearm/L_Hand/L_Pinky1/L_Pinky2/L_Pinky3", "RL_BoneRoot/Hip/Waist/Spine01/Spine02/L_Clavicle/L_Upperarm/L_Forearm/L_Hand/L_Ring1", "RL_BoneRoot/Hip/Waist/Spine01/Spine02/L_Clavicle/L_Upperarm/L_Forearm/L_Hand/L_Ring1/L_Ring2", "RL_BoneRoot/Hip/Waist/Spine01/Spine02/L_Clavicle/L_Upperarm/L_Forearm/L_Hand/L_Ring1/L_Ring2/L_Ring3", "RL_BoneRoot/Hip/Waist/Spine01/Spine02/L_Clavicle/L_Upperarm/L_Forearm/L_Hand/L_Mid1", "RL_BoneRoot/Hip/Waist/Spine01/Spine02/L_Clavicle/L_Upperarm/L_Forearm/L_Hand/L_Mid1/L_Mid2", "RL_BoneRoot/Hip/Waist/Spine01/Spine02/L_Clavicle/L_Upperarm/L_Forearm/L_Hand/L_Mid1/L_Mid2/L_Mid3", "RL_BoneRoot/Hip/Waist/Spine01/Spine02/L_Clavicle/L_Upperarm/L_Forearm/L_Hand/L_Index1", "RL_BoneRoot/Hip/Waist/Spine01/Spine02/L_Clavicle/L_Upperarm/L_Forearm/L_Hand/L_Index1/L_Index2", "RL_BoneRoot/Hip/Waist/Spine01/Spine02/L_Clavicle/L_Upperarm/L_Forearm/L_Hand/L_Index1/L_Index2/L_Index3", "RL_BoneRoot/Hip/Waist/Spine01/Spine02/L_Clavicle/L_Upperarm/L_Forearm/L_Hand/L_Thumb1", "RL_BoneRoot/Hip/Waist/Spine01/Spine02/L_Clavicle/L_Upperarm/L_Forearm/L_Hand/L_Thumb1/L_Thumb2", "RL_BoneRoot/Hip/Waist/Spine01/Spine02/L_Clavicle/L_Upperarm/L_Forearm/L_Hand/L_Thumb1/L_Thumb2/L_Thumb3", "RL_BoneRoot/Hip/Waist/Spine01/Spine02/L_Clavicle/L_Upperarm/L_UpperarmTwist01", "RL_BoneRoot/Hip/Waist/Spine01/Spine02/L_Clavicle/L_Upperarm/L_UpperarmTwist01/L_UpperarmTwist02", "RL_BoneRoot/Hip/Waist/Spine01/Spine02/L_RibsTwist", "RL_BoneRoot/Hip/Waist/Spine01/Spine02/L_RibsTwist/L_Breast", "RL_BoneRoot/Hip/Waist/Spine01/Spine02/R_RibsTwist", "RL_BoneRoot/Hip/Waist/Spine01/Spine02/R_RibsTwist/R_Breast", "RL_BoneRoot/Hip/Waist/Spine01/Spine02/R_Clavicle", "RL_BoneRoot/Hip/Waist/Spine01/Spine02/R_Clavicle/R_Upperarm", "RL_BoneRoot/Hip/Waist/Spine01/Spine02/R_Clavicle/R_Upperarm/R_Forearm", "RL_BoneRoot/Hip/Waist/Spine01/Spine02/R_Clavicle/R_Upperarm/R_Forearm/R_ElbowShareBone", "RL_BoneRoot/Hip/Waist/Spine01/Spine02/R_Clavicle/R_Upperarm/R_Forearm/R_ForearmTwist01", "RL_BoneRoot/Hip/Waist/Spine01/Spine02/R_Clavicle/R_Upperarm/R_Forearm/R_ForearmTwist01/R_ForearmTwist02", "RL_BoneRoot/Hip/Waist/Spine01/Spine02/R_Clavicle/R_Upperarm/R_Forearm/R_Hand", "RL_BoneRoot/Hip/Waist/Spine01/Spine02/R_Clavicle/R_Upperarm/R_Forearm/R_Hand/R_Ring1", "RL_BoneRoot/Hip/Waist/Spine01/Spine02/R_Clavicle/R_Upperarm/R_Forearm/R_Hand/R_Ring1/R_Ring2", "RL_BoneRoot/Hip/Waist/Spine01/Spine02/R_Clavicle/R_Upperarm/R_Forearm/R_Hand/R_Ring1/R_Ring2/R_Ring3", "RL_BoneRoot/Hip/Waist/Spine01/Spine02/R_Clavicle/R_Upperarm/R_Forearm/R_Hand/R_Mid1", "RL_BoneRoot/Hip/Waist/Spine01/Spine02/R_Clavicle/R_Upperarm/R_Forearm/R_Hand/R_Mid1/R_Mid2", "RL_BoneRoot/Hip/Waist/Spine01/Spine02/R_Clavicle/R_Upperarm/R_Forearm/R_Hand/R_Mid1/R_Mid2/R_Mid3", "RL_BoneRoot/Hip/Waist/Spine01/Spine02/R_Clavicle/R_Upperarm/R_Forearm/R_Hand/R_Thumb1", "RL_BoneRoot/Hip/Waist/Spine01/Spine02/R_Clavicle/R_Upperarm/R_Forearm/R_Hand/R_Thumb1/R_Thumb2", "RL_BoneRoot/Hip/Waist/Spine01/Spine02/R_Clavicle/R_Upperarm/R_Forearm/R_Hand/R_Thumb1/R_Thumb2/R_Thumb3", "RL_BoneRoot/Hip/Waist/Spine01/Spine02/R_Clavicle/R_Upperarm/R_Forearm/R_Hand/R_Index1", "RL_BoneRoot/Hip/Waist/Spine01/Spine02/R_Clavicle/R_Upperarm/R_Forearm/R_Hand/R_Index1/R_Index2", "RL_BoneRoot/Hip/Waist/Spine01/Spine02/R_Clavicle/R_Upperarm/R_Forearm/R_Hand/R_Index1/R_Index2/R_Index3", "RL_BoneRoot/Hip/Waist/Spine01/Spine02/R_Clavicle/R_Upperarm/R_Forearm/R_Hand/R_Pinky1", "RL_BoneRoot/Hip/Waist/Spine01/Spine02/R_Clavicle/R_Upperarm/R_Forearm/R_Hand/R_Pinky1/R_Pinky2", "RL_BoneRoot/Hip/Waist/Spine01/Spine02/R_Clavicle/R_Upperarm/R_Forearm/R_Hand/R_Pinky1/R_Pinky2/R_Pinky3", "RL_BoneRoot/Hip/Waist/Spine01/Spine02/R_Clavicle/R_Upperarm/R_UpperarmTwist01", "RL_BoneRoot/Hip/Waist/Spine01/Spine02/R_Clavicle/R_Upperarm/R_UpperarmTwist01/R_UpperarmTwist02"]
            quatf[] rotations = [(1, 0, 0, 0), (0.7071069, 0.70710665, 0, 0), (0.99768066, 0.06806828, -0.0000028841403, 0.000034654637), (0.009342116, -0.0008757433, 0.045957163, 0.99889934), (0.99983567, 0.01811327, 0.00015185888, 0.00074110046), (0.7562944, 0.65198845, -0.036957923, 0.039545972), (0.9902611, 0.1376334, 0.020960722, 0.0007961476), (0.99026513, 0.13763286, 0.020775005, 0.00077003747), (0.9814337, -0.18496501, 0.039508477, -0.031858116), (0.9752706, -0.2123419, 0.059578523, -0.0144392615), (0.9903327, -0.13068064, 0.04286729, -0.018058196), (0.98678297, -0.15305726, 0.046630546, -0.025659554), (0.99722606, -0.07144209, 0.0016279055, -0.02082079), (1, 0, 0, 0), (1, 0, 0, 0), (0.9998707, 0.000005009312, 0.016079433, 0.0000066210014), (1, 0, 0, 0), (1, 0, 0, 0), (-0.009249701, 0.00087806303, 0.046001755, 0.99889815), (0.99983615, 0.018087937, -0.0001520631, -0.0007055386), (0.99987066, 0.0000050627928, -0.016083602, -0.0000066192656), (0.75629956, 0.6519813, 0.036957074, -0.03956701), (0.99026376, 0.13764381, -0.020766217, -0.0008040895), (0.9972387, -0.071274415, -0.0016330895, 0.020790167), (0.9815022, -0.18462089, -0.039542295, 0.031702172), (0.97527796, -0.2123024, -0.059590664, 0.014473635), (0.9867843, -0.15304291, -0.04664171, 0.025674729), (0.99032885, -0.13070355, -0.042875737, 0.01808386), (0.99025995, 0.13764304, -0.020951824, -0.0008298874), (1, 0, 0, 0), (1, 0, 0, 0), (1, 0, 0, 0), (1, 0, 0, 0), (0.99365425, 0.112477414, 0.000006496686, -0.00004173832), (0.9802721, -0.19765268, 0, 0), (0.99996984, -0.0077624754, -0.000018904342, -0.00005485337), (0.99066216, 0.13629037, 0.00087205216, -0.0035590741), (0.9974747, 0.071023144, 0.00007781087, 0.00018352133), (0.9935263, -0.113546275, -0.0003176513, 0.0035560832), (0.4999998, 0.5000001, 0.49999994, 0.5000001), (0.70712125, -0.000059165985, -0.000041978805, 0.7070923), (0.99805886, 0.00008212765, -0.0015174529, 0.062258996), (0.99589276, 0.00038029626, -0.0014109204, 0.090528995), (1, 0, 0, 0), (-0.00008003221, 1, -0.0000022604368, 0.00009710099), (-0.000002173329, 0.70710677, 0.0000020070056, 0.7071068), (-0.0000020073303, 0.7071068, 0.000002173005, 0.70710677), (0.7071024, 0.000027605236, -0.0000306412, 0.7071111), (0.000010639185, 1, -0.0000102144295, -0.000034063756), (0.710531, -0.02184015, 0.15885387, -0.68515265), (0.73897153, 0.10113216, 0.08353499, -0.6608444), (0.99997294, -0.007218436, 0.00020159545, 0.001383556), (1, 0, 0, 0), (1, 0, 0, 0), (0.99999976, -0.000432363, 0.00040179372, -0.00031410003), (0.99973994, -0.006509563, 0.016461574, -0.014376015), (0.99939865, 0.024281582, -0.019206999, 0.015614327), (0.99979883, 0.0039509106, -0.0016240836, 0.01959589), (0.99902415, -0.016112102, 0.017829817, 0.037056852), (0.9997081, 0.0052886056, -0.01377793, 0.019128822), (0.99971145, 0.0096110515, -0.0024229977, -0.021880034), (0.9990469, -0.008689883, 0.006284226, 0.04231126), (0.9994361, 0.018382274, -0.022887215, 0.016302114), (0.9994832, 0.015697064, -0.0014476378, -0.0280132), (0.9996609, 0.008885893, -0.002327623, 0.024365444), (0.9998917, 0.0014727671, -0.012381383, -0.007814363), (0.9995034, 0.023802286, -0.007069837, -0.019402165), (0.9991382, 0.004890045, -0.0044570253, 0.040977146), (0.86306554, 0.39528072, -0.29485187, -0.109239876), (0.9802362, -0.1559666, 0.07222326, 0.097955324), (0.9990178, 0.04146297, -0.0009845961, 0.015599772), (0.99999917, 0.000003020364, -0.001291867, 1.9626054e-7), (0.9999991, 0.0000013123222, 0.0013260221, 7.890546e-8), (0.0000012737625, 0.0000072236976, 0.6382179, 0.7698558), (1, 0, 0, 0), (0.0000012596494, 0.0000072713196, 0.6382178, 0.76985586), (1, 0, 0, 0), (0.7103347, -0.021483961, -0.15851428, 0.685446), (0.7391343, 0.10078049, -0.083190024, 0.6607595), (0.9999727, -0.007280627, -0.00021767225, -0.0012176223), (0.9999998, -0.00038666002, -0.0003594339, 0.0002809434), (1, 0, 0, 0), (1, 0, 0, 0), (0.9997422, -0.0064535295, -0.016444877, 0.014263994), (0.9997091, 0.005284213, 0.013775486, -0.019077212), (0.9997096, 0.009631438, 0.0024299386, 0.021955954), (0.9990439, -0.0087023685, -0.006289904, -0.04237957), (0.999437, 0.018376112, 0.022885855, -0.016256545), (0.99948233, 0.015700554, 0.0014487391, 0.028043866), (0.9996612, 0.008888907, 0.002326608, -0.024353126), (0.8630809, 0.3952502, 0.29483753, 0.10926776), (0.98024166, -0.15596719, -0.07220137, -0.09791552), (0.9990168, 0.041477755, 0.0009831231, -0.015620192), (0.9998912, 0.0014648641, 0.01238114, 0.007880777), (0.9995032, 0.023802834, 0.0070666927, 0.019413382), (0.9991385, 0.0048868926, 0.004453099, -0.040971044), (0.9993996, 0.02428409, 0.019207295, -0.015549362), (0.9998015, 0.003987524, 0.0016365189, -0.01945196), (0.9990192, -0.016135953, -0.017836185, -0.037176188), (0.99999917, 0.0000030955537, 0.0012918669, -1.9305362e-7), (0.9999991, 0.0000013268906, -0.0013593165, 0)]
            half3[] scales = [(1, 1, 1), (1, 1, 1), (1, 1, 1), (1, 1, 1), (1, 1, 1), (1, 1, 1), (1, 1, 1), (1, 1, 1), (1, 1, 1), (1, 1, 1), (1, 1, 1), (1, 1, 1), (1, 1, 1), (1, 1, 1), (1, 1, 1), (1, 1, 1), (1, 1, 1), (1, 1, 1), (1, 1, 1), (1, 1, 1), (1, 1, 1), (1, 1, 1), (1, 1, 1), (1, 1, 1), (1, 1, 1), (1, 1, 1), (1, 1, 1), (1, 1, 1), (1, 1, 1), (1, 1, 1), (1, 1, 1), (1, 1, 1), (1, 1, 1), (1, 1, 1), (1, 1, 1), (1, 1, 1), (1, 1, 1), (1, 1, 1), (1, 1, 1), (1, 1, 1), (1, 1, 1), (1, 1, 1), (1, 1, 1), (1, 1, 1), (1, 1, 1), (1, 1, 1), (1, 1, 1), (1, 1, 1), (1, 1, 1), (1, 1, 1), (1, 1, 1), (1, 1, 1), (1, 1, 1), (1, 1, 1), (1, 1, 1), (1, 1, 1), (1, 1, 1), (1, 1, 1), (1, 1, 1), (1, 1, 1), (1, 1, 1), (1, 1, 1), (1, 1, 1), (1, 1, 1), (1, 1, 1), (1, 1, 1), (1, 1, 1), (1, 1, 1), (1, 1, 1), (1, 1, 1), (1, 1, 1), (1, 1, 1), (1, 1, 1), (1, 1, 1), (1, 1, 1), (1, 1, 1), (1, 1, 1), (1, 1, 1), (1, 1, 1), (1, 1, 1), (1, 1, 1), (1, 1, 1), (1, 1, 1), (1, 1, 1), (1, 1, 1), (1, 1, 1), (1, 1, 1), (1, 1, 1), (1, 1, 1), (1, 1, 1), (1, 1, 1), (1, 1, 1), (1, 1, 1), (1, 1, 1), (1, 1, 1), (1, 1, 1), (1, 1, 1), (1, 1, 1), (1, 1, 1), (1, 1, 1), (1, 1, 1)]
            float3[] translations = [(0, 0, 0), (0, 0, 0.9822023), (0, -2.2888183e-7, 9.5367065e-9), (0.09629797, -0.023610458, -0.0088286875), (-5.7220458e-8, 0.4397558, -4.2915343e-7), (0, 0.4426141, -5.4836274e-8), (0.011288553, 0.17109841, -0.00024154663), (0.011288495, 0.17109814, -0.00024150849), (-0.032980222, 0.002970457, -0.0046611857), (-0.017120562, 0.013540201, -0.0016808892), (1.9073486e-8, 0.022148257, 1.66893e-8), (0.018139062, 0.022948408, 0.0028712226), (0.043731607, 0.020774584, -0.001183114), (0, 1.9073487e-7, 4.529953e-8), (-0.0000041103362, 0.22130671, 0.0000030660628), (0, 1.9073487e-7, 4.529953e-8), (-4.7683715e-9, 9.155273e-7, 4.7683715e-9), (0.0000033569336, 0.21987695, -0.000010323524), (-0.09630735, -0.02358429, -0.008849783), (4.7683715e-9, 0.43976906, -2.6226044e-7), (-4.768371e-9, 2.6702878e-7, 4.5299526e-8), (2.3841856e-8, 0.4426176, 9.417532e-7), (-0.0144242905, 0.17076097, -0.0003086853), (-0.043731183, 0.02077526, -0.0011797142), (0.03298126, 0.0029710864, -0.0046618246), (0.017121239, 0.013536186, -0.001682334), (-0.018139096, 0.022944622, 0.0028714847), (-9.536743e-9, 0.02214819, 2.3841858e-8), (-0.014737883, 0.17072792, -0.0003153515), (-4.768371e-9, 2.6702878e-7, 4.5299526e-8), (0.000004119873, 0.22130856, 0.0000035810472), (-4.7683715e-9, 7.6293946e-7, 0), (-0.0000033092501, 0.21988383, -0.000010266305), (-0.000005729502, 0.08161759, 0.011188792), (7.4505804e-11, 0.04451477, -1.9073486e-8), (9.6447764e-8, 0.13523728, -0.0009067154), (7.109716e-8, 0.2788514, -8.010864e-7), (0, 0.03750839, 1.9073486e-8), (-2.3007392e-7, 0.03934494, 0.0000888443), (1.15484e-9, 3.0517577e-7, 1.001358e-7), (0.016450958, 0.027257245, 0.0000104661285), (0.030102815, 0.010371856, 0.00018001832), (0.0107472995, 3.0517577e-7, 1.3932586e-8), (0.015737304, -9.155273e-7, 1.2516975e-8), (0.03049096, 0.010552368, 0.00018819694), (0.07883347, 0.07831885, -0.032382417), (0.07939087, 0.07990163, 0.03039113), (0.03243469, 0.06590718, 0.00015700981), (0.00030210256, -0.00001953125, -2.503395e-8), (0.060823098, 0.22735924, 0.008050766), (-3.0517577e-7, 0.14351551, -1.335144e-7), (1.5258787e-7, 0.27178106, -9.536742e-9), (0.0000010681152, -3.8146972e-8, 4.7683717e-8), (-0.000003051758, 0.13025151, -4.768372e-8), (0.0000010681152, -3.8146972e-8, 4.7683717e-8), (1.5258789e-7, 0.26050317, -1.9073486e-8), (0.005834198, 0.09385933, -0.018861266), (-1.5258789e-7, 0.033867493, 9.536743e-9), (-3.0517577e-7, 0.018667527, -9.536743e-9), (-1.5258789e-7, 0.09139061, -2.8610229e-8), (3.0517577e-7, 0.04766098, -9.536743e-9), (0, 0.027829817, 9.536742e-9), (-0.0066174315, 0.09275543, 0.018519334), (4.5776366e-7, 0.048954085, 9.536743e-9), (-4.5776366e-7, 0.031777725, -2.3841858e-8), (-0.008360901, 0.089214176, 0.042089242), (3.0517577e-7, 0.04366089, 9.536743e-9), (-7.6293946e-7, 0.029837266, -9.536743e-9), (0.002341156, 0.017171096, 0.028536292), (0, 0.059491005, -2.2888183e-7), (-3.0517577e-7, 0.03146431, -7.6293944e-8), (9.1552727e-7, 1.5258787e-7, 0), (-6.1035166e-7, 0.13589042, -8.4877024e-7), (0.11373015, 0.071916126, 0.09944714), (2.2888183e-7, 0.019999953, -3.0517577e-7), (-0.11377713, 0.071838915, 0.09946884), (-2.002716e-7, 0.019999944, -3.0517577e-7), (-0.060929634, 0.22738197, 0.007902527), (-2.220446e-16, 0.14348257, -3.576279e-8), (3.0517583e-7, 0.27178338, 2.8610234e-8), (-0.0000012207033, 0, 4.291535e-8), (-0.0000012207033, 0, 4.291535e-8), (0.0000022888187, 0.13025263, -3.3378605e-8), (1.5258792e-7, 0.26050544, 4.768372e-8), (-4.5776375e-7, 0.091387264, -2.8610234e-8), (-1.5258787e-7, 0.047663342, 9.536742e-9), (-1.5258789e-7, 0.027830964, 9.536743e-9), (0.006614991, 0.092752315, 0.01851969), (-1.5258789e-7, 0.04895447, 9.536743e-9), (-1.5258789e-7, 0.031778336, -1.4305114e-8), (-0.0023347477, 0.017168429, 0.028537152), (1.5258789e-7, 0.05949093, 1.9073487e-7), (1.5258789e-7, 0.03146408, 1.5258789e-7), (0.008358614, 0.089211285, 0.042089816), (0, 0.04366028, 7.152557e-9), (1.5258792e-7, 0.029837955, 4.7683724e-9), (-0.005832978, 0.09385613, -0.018862069), (3.0517577e-7, 0.033870544, 9.536743e-9), (1.5258789e-7, 0.01867012, -9.536743e-9), (-4.5776375e-7, 1.5258792e-7, 9.536745e-9), (6.1035166e-7, 0.13589148, -8.440018e-7)]
        }

        over "ManRoot"
        {
            over "male_adult_medical_01"
            {
                over "male_adult_medical_01"
                {
                    over "male_adult_medical_01" (
                        prepend apiSchemas = ["SkelBindingAPI"]
                    )
                    {
                        rel skel:animationSource = </World/Person/StaticStandingPose>
                    }
                }
            }
        }
    }
}
