#usda 1.0
(
    defaultPrim = "World"
    metersPerUnit = 1
    upAxis = "Z"
)

def Xform "World"
{
    def Xform "Person" (
        prepend references = @https://omniverse-content-production.s3-us-west-2.amazonaws.com/Assets/Isaac/6.0/Isaac/People/Characters/original_male_adult_construction_01/male_adult_construction_01.usd@
    )
    {
        matrix4d xformOp:transform:normalized = ( (1.0291568289927884, 0, 0, 0), (0, 1.0291568289927884, 0, 0), (0, 0, 1.0291568289927884, 0), (0, 0, 0.009999414800024893, 1) )
        uniform token[] xformOpOrder = ["xformOp:transform:normalized"]

        def SkelAnimation "StaticStandingPose"
        {
            uniform token[] joints = ["RL_BoneRoot", "RL_BoneRoot/Hip", "RL_BoneRoot/Hip/Pelvis", "RL_BoneRoot/Hip/Pelvis/L_Thigh", "RL_BoneRoot/Hip/Pelvis/L_Thigh/L_Calf", "RL_BoneRoot/Hip/Pelvis/L_Thigh/L_Calf/L_Foot", "RL_BoneRoot/Hip/Pelvis/L_Thigh/L_Calf/L_Foot/L_ToeBaseShareBone", "RL_BoneRoot/Hip/Pelvis/L_Thigh/L_Calf/L_Foot/L_ToeBase", "RL_BoneRoot/Hip/Pelvis/L_Thigh/L_Calf/L_Foot/L_ToeBase/L_PinkyToe1", "RL_BoneRoot/Hip/Pelvis/L_Thigh/L_Calf/L_Foot/L_ToeBase/L_RingToe1", "RL_BoneRoot/Hip/Pelvis/L_Thigh/L_Calf/L_Foot/L_ToeBase/L_MidToe1", "RL_BoneRoot/Hip/Pelvis/L_Thigh/L_Calf/L_Foot/L_ToeBase/L_IndexToe1", "RL_BoneRoot/Hip/Pelvis/L_Thigh/L_Calf/L_Foot/L_ToeBase/L_BigToe1", "RL_BoneRoot/Hip/Pelvis/L_Thigh/L_Calf/L_CalfTwist01", "RL_BoneRoot/Hip/Pelvis/L_Thigh/L_Calf/L_CalfTwist01/L_CalfTwist02", "RL_BoneRoot/Hip/Pelvis/L_Thigh/L_Calf/L_KneeShareBone", "RL_BoneRoot/Hip/Pelvis/L_Thigh/L_ThighTwist01", "RL_BoneRoot/Hip/Pelvis/L_Thigh/L_ThighTwist01/L_ThighTwist02", "RL_BoneRoot/Hip/Pelvis/R_Thigh", "RL_BoneRoot/Hip/Pelvis/R_Thigh/R_Calf", "RL_BoneRoot/Hip/Pelvis/R_Thigh/R_Calf/R_KneeShareBone", "RL_BoneRoot/Hip/Pelvis/R_Thigh/R_Calf/R_Foot", "RL_BoneRoot/Hip/Pelvis/R_Thigh/R_Calf/R_Foot/R_ToeBase", "RL_BoneRoot/Hip/Pelvis/R_Thigh/R_Calf/R_Foot/R_ToeBase/R_BigToe1", "RL_BoneRoot/Hip/Pelvis/R_Thigh/R_Calf/R_Foot/R_ToeBase/R_PinkyToe1", "RL_BoneRoot/Hip/Pelvis/R_Thigh/R_Calf/R_Foot/R_ToeBase/R_RingToe1", "RL_BoneRoot/Hip/Pelvis/R_Thigh/R_Calf/R_Foot/R_ToeBase/R_IndexToe1", "RL_BoneRoot/Hip/Pelvis/R_Thigh/R_Calf/R_Foot/R_ToeBase/R_MidToe1", "RL_BoneRoot/Hip/Pelvis/R_Thigh/R_Calf/R_Foot/R_ToeBaseShareBone", "RL_BoneRoot/Hip/Pelvis/R_Thigh/R_Calf/R_CalfTwist01", "RL_BoneRoot/Hip/Pelvis/R_Thigh/R_Calf/R_CalfTwist01/R_CalfTwist02", "RL_BoneRoot/Hip/Pelvis/R_Thigh/R_ThighTwist01", "RL_BoneRoot/Hip/Pelvis/R_Thigh/R_ThighTwist01/R_ThighTwist02", "RL_BoneRoot/Hip/Waist", "RL_BoneRoot/Hip/Waist/Spine01", "RL_BoneRoot/Hip/Waist/Spine01/Spine02", "RL_BoneRoot/Hip/Waist/Spine01/Spine02/NeckTwist01", "RL_BoneRoot/Hip/Waist/Spine01/Spine02/NeckTwist01/NeckTwist02", "RL_BoneRoot/Hip/Waist/Spine01/Spine02/NeckTwist01/NeckTwist02/Head", "RL_BoneRoot/Hip/Waist/Spine01/Spine02/NeckTwist01/NeckTwist02/Head/FacialBone", "RL_BoneRoot/Hip/Waist/Spine01/Spine02/NeckTwist01/NeckTwist02/Head/FacialBone/JawRoot", "RL_BoneRoot/Hip/Waist/Spine01/Spine02/NeckTwist01/NeckTwist02/Head/FacialBone/JawRoot/Tongue01", "RL_BoneRoot/Hip/Waist/Spine01/Spine02/NeckTwist01/NeckTwist02/Head/FacialBone/JawRoot/Tongue01/Tongue02", "RL_BoneRoot/Hip/Waist/Spine01/Spine02/NeckTwist01/NeckTwist02/Head/FacialBone/JawRoot/Tongue01/Tongue02/Tongue03", "RL_BoneRoot/Hip/Waist/Spine01/Spine02/NeckTwist01/NeckTwist02/Head/FacialBone/JawRoot/Teeth02", "RL_BoneRoot/Hip/Waist/Spine01/Spine02/NeckTwist01/NeckTwist02/Head/FacialBone/R_Eye", "RL_BoneRoot/Hip/Waist/Spine01/Spine02/NeckTwist01/NeckTwist02/Head/FacialBone/L_Eye", "RL_BoneRoot/Hip/Waist/Spine01/Spine02/NeckTwist01/NeckTwist02/Head/FacialBone/UpperJaw", "RL_BoneRoot/Hip/Waist/Spine01/Spine02/NeckTwist01/NeckTwist02/Head/FacialBone/UpperJaw/Teeth01", "RL_BoneRoot/Hip/Waist/Spine01/Spine02/L_Clavicle", "RL_BoneRoot/Hip/Waist/Spine01/Spine02/L_Clavicle/L_Upperarm", "RL_BoneRoot/Hip/Waist/Spine01/Spine02/L_Clavicle/L_Upperarm/L_Forearm", "RL_BoneRoot/Hip/Waist/Spine01/Spine02/L_Clavicle/L_Upperarm/L_Forearm/L_ForearmTwist01", "RL_BoneRoot/Hip/Waist/Spine01/Spine02/L_Clavicle/L_Upperarm/L_Forearm/L_ForearmTwist01/L_ForearmTwist02", "RL_BoneRoot/Hip/Waist/Spine01/Spine02/L_Clavicle/L_Upperarm/L_Forearm/L_ElbowShareBone", "RL_BoneRoot/Hip/Waist/Spine01/Spine02/L_Clavicle/L_Upperarm/L_Forearm/L_Hand", "RL_BoneRoot/Hip/Waist/Spine01/Spine02/L_Clavicle/L_Upperarm/L_Forearm/L_Hand/L_Pinky1", "RL_BoneRoot/Hip/Waist/Spine01/Spine02/L_Clavicle/L_Upperarm/L_Forearm/L_Hand/L_Pinky1/L_Pinky2", "RL_BoneRoot/Hip/Waist/Spine01/Spine02/L_Clavicle/L_Upperarm/L_Forearm/L_Hand/L_Pinky1/L_Pinky2/L_Pinky3", "RL_BoneRoot/Hip/Waist/Spine01/Spine02/L_Clavicle/L_Upperarm/L_Forearm/L_Hand/L_Ring1", "RL_BoneRoot/Hip/Waist/Spine01/Spine02/L_Clavicle/L_Upperarm/L_Forearm/L_Hand/L_Ring1/L_Ring2", "RL_BoneRoot/Hip/Waist/Spine01/Spine02/L_Clavicle/L_Upperarm/L_Forearm/L_Hand/L_Ring1/L_Ring2/L_Ring3", "RL_BoneRoot/Hip/Waist/Spine01/Spine02/L_Clavicle/L_Upperarm/L_Forearm/L_Hand/L_Mid1", "RL_BoneRoot/Hip/Waist/Spine01/Spine02/L_Clavicle/L_Upperarm/L_Forearm/L_Hand/L_Mid1/L_Mid2", "RL_BoneRoot/Hip/Waist/Spine01/Spine02/L_Clavicle/L_Upperarm/L_Forearm/L_Hand/L_Mid1/L_Mid2/L_Mid3", "RL_BoneRoot/Hip/Waist/Spine01/Spine02/L_Clavicle/L_Upperarm/L_Forearm/L_Hand/L_Index1", "RL_BoneRoot/Hip/Waist/Spine01/Spine02/L_Clavicle/L_Upperarm/L_Forearm/L_Hand/L_Index1/L_Index2", "RL_BoneRoot/Hip/Waist/Spine01/Spine02/L_Clavicle/L_Upperarm/L_Forearm/L_Hand/L_Index1/L_Index2/L_Index3", "RL_BoneRoot/Hip/Waist/Spine01/Spine02/L_Clavicle/L_Upperarm/L_Forearm/L_Hand/L_Thumb1", "RL_BoneRoot/Hip/Waist/Spine01/Spine02/L_Clavicle/L_Upperarm/L_Forearm/L_Hand/L_Thumb1/L_Thumb2", "RL_BoneRoot/Hip/Waist/Spine01/Spine02/L_Clavicle/L_Upperarm/L_Forearm/L_Hand/L_Thumb1/L_Thumb2/L_Thumb3", "RL_BoneRoot/Hip/Waist/Spine01/Spine02/L_Clavicle/L_Upperarm/L_UpperarmTwist01", "RL_BoneRoot/Hip/Waist/Spine01/Spine02/L_Clavicle/L_Upperarm/L_UpperarmTwist01/L_UpperarmTwist02", "RL_BoneRoot/Hip/Waist/Spine01/Spine02/L_RibsTwist", "RL_BoneRoot/Hip/Waist/Spine01/Spine02/L_RibsTwist/L_Breast", "RL_BoneRoot/Hip/Waist/Spine01/Spine02/R_RibsTwist", "RL_BoneRoot/Hip/Waist/Spine01/Spine02/R_RibsTwist/R_Breast", "RL_BoneRoot/Hip/Waist/Spine01/Spine02/R_Clavicle", "RL_BoneRoot/Hip/Waist/Spine01/Spine02/R_Clavicle/R_Upperarm", "RL_BoneRoot/Hip/Waist/Spine01/Spine02/R_Clavicle/R_Upperarm/R_Forearm", "RL_BoneRoot/Hip/Waist/Spine01/Spine02/R_Clavicle/R_Upperarm/R_Forearm/R_ElbowShareBone", "RL_BoneRoot/Hip/Waist/Spine01/Spine02/R_Clavicle/R_Upperarm/R_Forearm/R_ForearmTwist01", "RL_BoneRoot/Hip/Waist/Spine01/Spine02/R_Clavicle/R_Upperarm/R_Forearm/R_ForearmTwist01/R_ForearmTwist02", "RL_BoneRoot/Hip/Waist/Spine01/Spine02/R_Clavicle/R_Upperarm/R_Forearm/R_Hand", "RL_BoneRoot/Hip/Waist/Spine01/Spine02/R_Clavicle/R_Upperarm/R_Forearm/R_Hand/R_Ring1", "RL_BoneRoot/Hip/Waist/Spine01/Spine02/R_Clavicle/R_Upperarm/R_Forearm/R_Hand/R_Ring1/R_Ring2", "RL_BoneRoot/Hip/Waist/Spine01/Spine02/R_Clavicle/R_Upperarm/R_Forearm/R_Hand/R_Ring1/R_Ring2/R_Ring3", "RL_BoneRoot/Hip/Waist/Spine01/Spine02/R_Clavicle/R_Upperarm/R_Forearm/R_Hand/R_Mid1", "RL_BoneRoot/Hip/Waist/Spine01/Spine02/R_Clavicle/R_Upperarm/R_Forearm/R_Hand/R_Mid1/R_Mid2", "RL_BoneRoot/Hip/Waist/Spine01/Spine02/R_Clavicle/R_Upperarm/R_Forearm/R_Hand/R_Mid1/R_Mid2/R_Mid3", "RL_BoneRoot/Hip/Waist/Spine01/Spine02/R_Clavicle/R_Upperarm/R_Forearm/R_Hand/R_Thumb1", "RL_BoneRoot/Hip/Waist/Spine01/Spine02/R_Clavicle/R_Upperarm/R_Forearm/R_Hand/R_Thumb1/R_Thumb2", "RL_BoneRoot/Hip/Waist/Spine01/Spine02/R_Clavicle/R_Upperarm/R_Forearm/R_Hand/R_Thumb1/R_Thumb2/R_Thumb3", "RL_BoneRoot/Hip/Waist/Spine01/Spine02/R_Clavicle/R_Upperarm/R_Forearm/R_Hand/R_Index1", "RL_BoneRoot/Hip/Waist/Spine01/Spine02/R_Clavicle/R_Upperarm/R_Forearm/R_Hand/R_Index1/R_Index2", "RL_BoneRoot/Hip/Waist/Spine01/Spine02/R_Clavicle/R_Upperarm/R_Forearm/R_Hand/R_Index1/R_Index2/R_Index3", "RL_BoneRoot/Hip/Waist/Spine01/Spine02/R_Clavicle/R_Upperarm/R_Forearm/R_Hand/R_Pinky1", "RL_BoneRoot/Hip/Waist/Spine01/Spine02/R_Clavicle/R_Upperarm/R_Forearm/R_Hand/R_Pinky1/R_Pinky2", "RL_BoneRoot/Hip/Waist/Spine01/Spine02/R_Clavicle/R_Upperarm/R_Forearm/R_Hand/R_Pinky1/R_Pinky2/R_Pinky3", "RL_BoneRoot/Hip/Waist/Spine01/Spine02/R_Clavicle/R_Upperarm/R_UpperarmTwist01", "RL_BoneRoot/Hip/Waist/Spine01/Spine02/R_Clavicle/R_Upperarm/R_UpperarmTwist01/R_UpperarmTwist02"]
            quatf[] rotations = [(1, 0, 0, 0), (0.7071069, 0.70710665, 0, 0), (0.9994065, 0.034409646, -0.00013363521, 0.0016087589), (0.008300833, -0.00019140626, 0.028747668, 0.9995522), (0.9999653, -0.008218014, 0.00016651543, 0.0013472706), (0.75450075, 0.6539519, -0.04069345, 0.037677404), (0.99083847, 0.13331193, 0.021384602, -0.0031243172), (0.9908425, 0.13331099, 0.021198826, -0.0031497376), (0.9990276, -0.009233119, 0.041734815, 0.010808315), (0.9967546, -0.052246258, 0.061022643, 0.0051827617), (0.99823695, -0.040142495, 0.04364425, -0.0025910563), (0.9954164, -0.07919937, 0.044656478, -0.02965594), (0.9955382, -0.08534683, 0.0003050367, -0.040243864), (1, 0, 0, 0), (1, 0, 0, 0), (0.9998707, 0.00000501135, 0.016078508, 0.0000066187954), (1, 0, 0, 0), (1, 0, 0, 0), (-0.004484307, 0.000436125, 0.02725127, 0.9996185), (0.99996525, -0.0082215415, -0.0001665879, -0.0013478538), (0.9998707, 0.000005018912, -0.016080359, -0.000006617916), (0.75434387, 0.6541598, 0.040993135, -0.03687666), (0.99085706, 0.13318908, -0.021317571, 0.0029217876), (0.9955429, -0.08528055, -0.00031827923, 0.040267035), (0.99902713, -0.00926614, -0.04170237, -0.0109470785), (0.99676675, -0.05211948, -0.060935304, -0.005145251), (0.9954291, -0.07910102, -0.044653643, 0.029495629), (0.9982443, -0.040024333, -0.043585654, 0.0025922933), (0.99085295, 0.13319014, -0.021503408, 0.002896377), (1, 0, 0, 0), (1, 0, 0, 0), (1, 0, 0, 0), (1, 0, 0, 0), (0.98398083, 0.1782741, -0.00002929362, 0.00018819865), (0.97558755, -0.21960615, 0.00039578677, 0.0013887536), (0.9996136, -0.027677244, -0.000008200571, -0.0025796809), (0.97980577, 0.19979537, 0.0020180566, -0.0076428493), (0.99782217, -0.06281017, -0.000121307225, 0.020142883), (0.9975939, -0.0683839, 0.0010145684, -0.011358016), (0.49999997, 0.49999997, 0.49999997, 0.50000006), (0.70712125, -0.000059164588, -0.00004197701, 0.7070923), (0.9990735, -0.00031857326, 0.0058016414, 0.042642355), (0.9937129, -0.00009833308, -0.010639221, 0.111451894), (1, 0, 0, 0), (-0.00008064316, 1, -0.0000022976826, 0.000097145676), (-0.0000021924911, 0.70710677, 0.0000020299906, 0.7071068), (-0.0000020264922, 0.7071068, 0.0000021959897, 0.70710677), (0.7071024, 0.000027543412, -0.000030639414, 0.7071112), (0.000010639182, 1, -0.00001027637, -0.00003397436), (-0.6932389, 0.05418839, -0.15347348, 0.70208925), (0.75079685, 0.109996095, 0.09977105, -0.6436231), (0.9999498, -0.0055807065, -0.00027483597, 0.00831397), (1, 0, 0, 0), (1, 0, 0, 0), (0.9999997, -0.00050545455, 0.00046969223, -0.0003672226), (0.996996, -0.03859295, 0.028379159, 0.060861755), (0.99613833, 0.05741339, -0.0330868, -0.057596363), (0.9997692, -0.014529591, 0.0030719796, -0.01552302), (0.9988309, -0.036512896, 0.019135555, 0.025248226), (0.9963079, 0.052464325, -0.030380512, -0.06078659), (0.99973583, -0.012961365, 0.0035034937, -0.018654607), (0.9992526, -0.018326193, 0.007636408, 0.033165995), (0.99638534, 0.05203568, -0.03665909, -0.05625533), (0.999943, -0.0035625482, 0.003752291, -0.009339919), (0.9999437, 0.005435812, -0.002221067, 0.008841291), (0.9970072, 0.02962524, -0.022009805, -0.06793066), (0.99974155, 0.020738943, -0.0075436276, -0.005460285), (0.99927276, 0.012340334, -0.0073640514, 0.035318986), (0.8331891, 0.40387437, -0.35154602, -0.13819158), (0.9717181, -0.19193153, 0.09580884, 0.098726615), (0.99903476, 0.041256167, -0.005568499, -0.01401763), (0.9999991, 0.0000030492502, -0.0013147338, 1.7277425e-7), (0.99999917, 0.0000013203796, 0.0012802834, 8.6616396e-8), (-0.0007421453, -0.0006092479, 0.6558852, 0.75486), (1, 0, 0, 0), (-0.0007421584, -0.0006091999, 0.6558853, 0.75486), (1, 0, 0, 0), (0.6921362, -0.053179376, -0.15291178, 0.7033757), (0.7512458, 0.10939407, -0.09907946, 0.6433086), (0.99995196, -0.0062775495, 0.000087999906, -0.0075256373), (0.99999976, -0.00045356498, -0.0004213028, 0.0003294253), (1, 0, 0, 0), (1, 0, 0, 0), (0.9970822, -0.03821043, -0.02817633, -0.05977597), (0.996254, 0.053164594, 0.03044878, 0.061027143), (0.9997916, -0.014311719, -0.0039141816, 0.014021799), (0.99931026, -0.01777371, -0.0075229825, -0.031726312), (0.9965775, 0.051927473, 0.036680054, 0.052833237), (0.9999452, -0.0037109747, -0.0038067517, 0.009015139), (0.999966, 0.0058409553, 0.0023294222, -0.005329651), (0.83332837, 0.4042834, 0.3509025, 0.13779046), (0.9720855, -0.19091065, -0.09517976, -0.09769223), (0.99906844, 0.04096161, 0.005345377, 0.012484286), (0.9973793, 0.028999077, 0.021880234, 0.06256852), (0.9997062, 0.021630447, 0.007949326, 0.0075118733), (0.99935454, 0.010029724, 0.006849312, -0.033807952), (0.9960237, 0.05890593, 0.033403736, 0.057888184), (0.99977756, -0.016513495, -0.0036192571, 0.012608947), (0.9987978, -0.03696373, -0.019334504, -0.02574676), (0.99999917, 0.000003024058, 0.0013033506, -1.6064732e-7), (0.99999917, 0.0000013087362, -0.0013033535, -1.0431168e-16)]
            half3[] scales = [(1, 1, 1), (1, 1, 1), (1, 1, 1), (1, 1, 1), (1, 1, 1), (1, 1, 1), (1, 1, 1), (1, 1, 1), (1, 1, 1), (1, 1, 1), (1, 1, 1), (1, 1, 1), (1, 1, 1), (1, 1, 1), (1, 1, 1), (1, 1, 1), (1, 1, 1), (1, 1, 1), (1, 1, 1), (1, 1, 1), (1, 1, 1), (1, 1, 1), (1, 1, 1), (1, 1, 1), (1, 1, 1), (1, 1, 1), (1, 1, 1), (1, 1, 1), (1, 1, 1), (1, 1, 1), (1, 1, 1), (1, 1, 1), (1, 1, 1), (1, 1, 1), (1, 1, 1), (1, 1, 1), (1, 1, 1), (1, 1, 1), (1, 1, 1), (1, 1, 1), (1, 1, 1), (1, 1, 1), (1, 1, 1), (1, 1, 1), (1, 1, 1), (1, 1, 1), (1, 1, 1), (1, 1, 1), (1, 1, 1), (1, 1, 1), (1, 1, 1), (1, 1, 1), (1, 1, 1), (1, 1, 1), (1, 1, 1), (1, 1, 1), (1, 1, 1), (1, 1, 1), (1, 1, 1), (1, 1, 1), (1, 1, 1), (1, 1, 1), (1, 1, 1), (1, 1, 1), (1, 1, 1), (1, 1, 1), (1, 1, 1), (1, 1, 1), (1, 1, 1), (1, 1, 1), (1, 1, 1), (1, 1, 1), (1, 1, 1), (1, 1, 1), (1, 1, 1), (1, 1, 1), (1, 1, 1), (1, 1, 1), (1, 1, 1), (1, 1, 1), (1, 1, 1), (1, 1, 1), (1, 1, 1), (1, 1, 1), (1, 1, 1), (1, 1, 1), (1, 1, 1), (1, 1, 1), (1, 1, 1), (1, 1, 1), (1, 1, 1), (1, 1, 1), (1, 1, 1), (1, 1, 1), (1, 1, 1), (1, 1, 1), (1, 1, 1), (1, 1, 1), (1, 1, 1), (1, 1, 1), (1, 1, 1)]
            float3[] translations = [(0, 0, 0), (0, 0, 0.9718969), (0, -2.2888183e-7, 9.536743e-9), (0.09583554, -0.022466583, -0.00014493466), (-0.000009279251, 0.4428059, -9.989739e-7), (0.0011958505, 0.44779095, -0.0008969999), (0.014943773, 0.14506768, -0.0003397942), (0.014627563, 0.14510205, -0.0003326035), (-0.029656878, 0.009802637, -0.0059019816), (-0.015671749, 0.021386461, -0.0017411602), (-4.2915346e-8, 0.031589337, 1.4305114e-8), (0.018130174, 0.03487751, 0.003103714), (0.04158716, 0.027808037, -0.0000870645), (-1.907349e-8, 1.9073488e-7, 4.0531162e-8), (0.00059379585, 0.2238952, -0.00044539454), (-1.907349e-8, 1.9073488e-7, 4.0531162e-8), (-9.536743e-9, 7.6293946e-7, 8.34465e-9), (-0.0000012874605, 0.22140191, -0.000010702611), (-0.09659638, -0.02166336, 0.00011301041), (0.000002412796, 0.44288155, -0.0000011396409), (9.536743e-9, 1.9073487e-7, 4.053116e-8), (-0.0014037323, 0.44782257, -0.00065519335), (-0.015839443, 0.14489706, -0.00036458968), (-0.041592263, 0.027822476, -0.000111356974), (0.029672962, 0.009795065, -0.005905399), (0.015668444, 0.021362314, -0.0017306864), (-0.018106228, 0.034910012, 0.003080151), (9.536743e-9, 0.031586114, 0), (-0.015411325, 0.1449433, -0.00035471917), (9.536743e-9, 1.9073487e-7, 4.053116e-8), (-0.0006977463, 0.22391102, -0.00032446385), (-1.9073486e-8, 8.392334e-7, 8.34465e-9), (-0.0000021648407, 0.22144005, -0.000010752678), (-0.00021041058, 0.06509216, 0.0044874465), (-3.5390257e-10, 0.0405896, 1.14440915e-7), (-5.39124e-7, 0.13847603, 7.6293946e-7), (1.6391278e-8, 0.29871574, 4.959106e-7), (3.0994414e-8, 0.023500213, 0), (-2.8610229e-8, 0.033453215, -5.7220458e-8), (3.2037497e-9, 0, 5.00679e-8), (0.014662628, 0.023516066, -0.00031643637), (0.031604737, 0.008924255, -0.0002944064), (0.01096509, 0.00011917114, 1.5884638e-7), (0.016829453, -0.00015258789, -0.000002782643), (0.03185455, 0.008918915, -0.00027780264), (0.07578384, 0.070433095, -0.031939898), (0.075786136, 0.07046299, 0.03216463), (0.029306335, 0.06270573, -0.00015937659), (0.00030210495, -0.00001953125, -2.4847687e-8), (0.061034508, 0.23447563, -0.0017297172), (0, 0.13494544, -4.529953e-8), (1.5258789e-7, 0.27556476, -1.4305114e-8), (0.0000012207031, 1.14440915e-7, 2.8610229e-8), (-0.0000027465821, 0.11004826, -4.2915346e-8), (0.0000012207031, 1.14440915e-7, 2.8610229e-8), (-1.5258789e-7, 0.22009651, -6.198883e-8), (0.008229218, 0.09614, -0.017701762), (0, 0.030100327, 3.8146972e-8), (-1.5258789e-7, 0.018591844, 2.8610229e-8), (-1.5258792e-7, 0.09814599, 2.8610234e-8), (0, 0.043144073, -1.9073486e-8), (3.0517583e-7, 0.029796908, 3.814698e-8), (-0.0047721867, 0.103090145, 0.01895962), (-4.5776366e-7, 0.045066986, 3.33786e-8), (3.0517583e-7, 0.031488575, 4.7683724e-9), (-0.0052763373, 0.1020926, 0.043665852), (-3.0517577e-7, 0.04377243, 1.9073486e-8), (-1.5258789e-7, 0.028315278, -9.536743e-9), (0.002265015, 0.018066332, 0.029190129), (0, 0.072211765, 5.722046e-7), (0, 0.029408036, -1.5258789e-7), (6.1035155e-7, 8.583069e-8, 4.7683715e-9), (-4.5776366e-7, 0.13778229, -8.392334e-7), (0.11376186, 0.06691566, 0.097576275), (1.9073487e-7, 0.019999914, -3.0517577e-7), (-0.11408487, 0.066657946, 0.09753145), (-2.193451e-7, 0.019999932, 0), (-0.061274063, 0.23365563, -0.002041607), (-4.5776366e-7, 0.13499196, -1.16825106e-7), (3.0517577e-7, 0.27627802, -6.198883e-8), (-0.0000012207031, 0, 3.8146972e-8), (-0.0000012207031, 0, 3.8146972e-8), (0.0000030517579, 0.109668195, -5.2452087e-8), (-3.0517577e-7, 0.21933612, -5.2452087e-8), (-1.5258792e-7, 0.098036736, -9.536745e-9), (1.5258789e-7, 0.04310959, -1.9073486e-8), (-1.5258789e-7, 0.029823227, 1.9073486e-8), (0.004543305, 0.10268311, 0.019008992), (3.0517577e-7, 0.045262527, 9.536743e-9), (-4.5776372e-7, 0.03151543, -4.7683724e-9), (-0.0021925357, 0.017806703, 0.02920025), (0, 0.07253425, -3.814697e-8), (1.5258789e-7, 0.02942177, 7.6293944e-8), (0.0049688728, 0.10178223, 0.0437637), (3.0517577e-7, 0.04383835, -9.536743e-9), (3.0517577e-7, 0.028350983, 1.9073486e-8), (-0.00811905, 0.095888525, -0.017779991), (0, 0.03027237, -3.8146972e-8), (3.0517577e-7, 0.018599473, 0), (-4.5776366e-7, 1.14440915e-7, 2.3841858e-8), (4.5776366e-7, 0.13813889, -9.059906e-7)]
        }

        over "ManRoot"
        {
            over "male_adult_construction_01"
            {
                over "male_adult_construction_01"
                {
                    over "male_adult_construction_01" (
                        prepend apiSchemas = ["SkelBindingAPI"]
                    )
                    {
                        rel skel:animationSource = </World/Person/StaticStandingPose>
                    }
                }
            }
        }
    }
}
