#usda 1.0
(
    defaultPrim = "World"
    metersPerUnit = 1
    subLayers = [
        @../step2_1b_v2/indoor_worker.usda@
    ]
    upAxis = "Z"
)

over "World"
{
    over "Person"
    {
        over "ManRoot"
        {
            over "male_adult_construction_01"
            {
                over "male_adult_construction_01"
                {
                    over "opaque__plastic__hardhat_01" (
                        active = false
                    )
                    {
                    }

                    over "opaque__fabric__vest_01" (
                        prepend apiSchemas = ["MaterialBindingAPI"]
                    )
                    {
                        rel material:binding = </World/WorkerAppearance/vest> (
                            bindMaterialAs = "strongerThanDescendants"
                        )
                    }

                    over "opaque__fabric__workpants_01" (
                        prepend apiSchemas = ["MaterialBindingAPI"]
                    )
                    {
                        rel material:binding = </World/WorkerAppearance/workpants> (
                            bindMaterialAs = "strongerThanDescendants"
                        )
                    }

                    over "opaque__leather__boots_01" (
                        prepend apiSchemas = ["MaterialBindingAPI"]
                    )
                    {
                        rel material:binding = </World/WorkerAppearance/boots> (
                            bindMaterialAs = "strongerThanDescendants"
                        )
                    }

                    over "opaque__leather__gloves_01" (
                        prepend apiSchemas = ["MaterialBindingAPI"]
                    )
                    {
                        rel material:binding = </World/WorkerAppearance/gloves> (
                            bindMaterialAs = "strongerThanDescendants"
                        )
                    }

                    over "opaque__fabric__tshirt_01" (
                        prepend apiSchemas = ["MaterialBindingAPI"]
                    )
                    {
                        rel material:binding = </World/WorkerAppearance/tshirt> (
                            bindMaterialAs = "strongerThanDescendants"
                        )
                    }

                    over "retro__reflective__vest_01" (
                        prepend apiSchemas = ["MaterialBindingAPI"]
                    )
                    {
                        rel material:binding = </World/WorkerAppearance/reflective> (
                            bindMaterialAs = "strongerThanDescendants"
                        )
                    }

                    over "retro__reflective__pants_01" (
                        prepend apiSchemas = ["MaterialBindingAPI"]
                    )
                    {
                        rel material:binding = </World/WorkerAppearance/reflective> (
                            bindMaterialAs = "strongerThanDescendants"
                        )
                    }
                }
            }
        }
    }

    over "Rig"
    {
        over "WearerMount"
        {
            over "FittedBand" (
                active = true
            )
            {
                float3[] extent = [(-0.24423341, -0.08743667, -0.008), (-0.029999997, 0.086831346, 0.008)]
                int[] faceVertexCounts = [3, 3, 3, 3, 3, 3, 3, 3, 3, 3, 3, 3, 3, 3, 3, 3, 3, 3, 3, 3, 3, 3, 3, 3, 3, 3, 3, 3, 3, 3, 3, 3, 3, 3, 3, 3, 3, 3, 3, 3, 3, 3, 3, 3, 3, 3, 3, 3, 3, 3, 3, 3, 3, 3, 3, 3, 3, 3, 3, 3, 3, 3, 3, 3, 3, 3, 3, 3, 3, 3, 3, 3, 3, 3, 3, 3, 3, 3, 3, 3, 3, 3, 3, 3, 3, 3, 3, 3, 3, 3, 3, 3, 3, 3, 3, 3, 3, 3, 3, 3, 3, 3, 3, 3, 3, 3, 3, 3, 3, 3, 3, 3, 3, 3, 3, 3, 3, 3, 3, 3, 3, 3, 3, 3, 3, 3, 3, 3, 3, 3, 3, 3, 3, 3, 3, 3, 3, 3, 3, 3, 3, 3, 3, 3, 3, 3, 3, 3, 3, 3, 3, 3, 3, 3, 3, 3, 3, 3, 3, 3, 3, 3, 3, 3, 3, 3, 3, 3, 3, 3, 3, 3, 3, 3, 3, 3, 3, 3, 3, 3, 3, 3, 3, 3, 3, 3, 3, 3, 3, 3, 3, 3, 3, 3, 3, 3, 3, 3, 3, 3, 3, 3, 3, 3, 3, 3, 3, 3, 3, 3, 3, 3, 3, 3, 3, 3, 3, 3, 3, 3, 3, 3, 3, 3, 3, 3, 3, 3, 3, 3, 3, 3, 3, 3, 3, 3, 3, 3, 3, 3, 3, 3, 3, 3, 3, 3, 3, 3, 3, 3, 3, 3, 3, 3, 3, 3, 3, 3, 3, 3, 3, 3, 3, 3, 3, 3, 3, 3, 3, 3, 3, 3, 3, 3, 3, 3, 3, 3, 3, 3, 3, 3, 3, 3, 3, 3, 3, 3, 3, 3, 3, 3, 3, 3, 3, 3, 3, 3, 3, 3, 3, 3, 3, 3, 3, 3, 3, 3, 3, 3, 3, 3, 3, 3, 3, 3, 3, 3, 3, 3, 3, 3, 3, 3, 3, 3, 3, 3, 3, 3, 3, 3, 3, 3, 3, 3, 3, 3, 3, 3]
                int[] faceVertexIndices = [0, 1, 2, 2, 3, 4, 3, 5, 4, 1, 3, 2, 2, 4, 44, 3, 45, 5, 0, 2, 42, 1, 43, 3, 0, 6, 7, 0, 7, 1, 6, 9, 7, 6, 8, 9, 0, 40, 6, 1, 7, 41, 6, 46, 8, 7, 9, 47, 4, 5, 10, 5, 11, 10, 10, 11, 18, 10, 12, 13, 10, 18, 12, 10, 14, 16, 10, 16, 17, 10, 17, 15, 10, 13, 14, 11, 19, 18, 11, 20, 19, 11, 21, 20, 11, 22, 21, 11, 23, 22, 11, 25, 23, 11, 26, 25, 11, 27, 26, 11, 28, 27, 11, 30, 28, 11, 31, 30, 11, 32, 31, 11, 39, 32, 39, 33, 32, 39, 34, 33, 39, 35, 34, 39, 78, 35, 4, 10, 50, 5, 51, 11, 10, 15, 52, 11, 53, 39, 52, 15, 24, 52, 24, 29, 52, 29, 36, 52, 36, 37, 52, 37, 38, 52, 38, 82, 0, 42, 40, 2, 44, 42, 3, 43, 45, 1, 41, 43, 40, 42, 41, 42, 44, 43, 43, 44, 45, 41, 42, 43, 6, 40, 46, 7, 47, 41, 8, 46, 48, 9, 49, 47, 40, 47, 46, 40, 41, 47, 46, 47, 49, 46, 49, 48, 4, 50, 44, 5, 45, 51, 10, 52, 50, 11, 51, 53, 44, 50, 45, 45, 50, 51, 50, 52, 51, 51, 52, 53, 8, 55, 9, 8, 54, 55, 54, 56, 55, 54, 57, 56, 8, 48, 54, 9, 55, 49, 54, 66, 57, 55, 56, 67, 56, 57, 59, 57, 58, 59, 58, 60, 59, 58, 61, 60, 60, 61, 63, 61, 62, 63, 56, 59, 68, 57, 69, 58, 58, 70, 61, 59, 60, 71, 60, 63, 72, 61, 73, 62, 62, 65, 63, 62, 64, 65, 64, 142, 65, 64, 143, 142, 63, 65, 75, 62, 74, 64, 65, 142, 77, 64, 76, 143, 48, 66, 54, 49, 55, 67, 57, 66, 69, 56, 68, 67, 48, 49, 67, 48, 67, 66, 66, 67, 68, 66, 68, 69, 58, 69, 70, 59, 71, 68, 60, 72, 71, 61, 70, 73, 63, 75, 72, 62, 73, 74, 68, 71, 69, 69, 71, 70, 70, 71, 72, 70, 72, 73, 72, 75, 73, 73, 75, 74, 65, 77, 75, 64, 74, 76, 77, 142, 157, 76, 158, 143, 74, 75, 77, 74, 77, 76, 76, 77, 157, 76, 157, 158, 39, 79, 78, 39, 80, 79, 39, 81, 80, 39, 84, 81, 39, 85, 84, 39, 86, 85, 39, 87, 86, 39, 102, 87, 39, 103, 102, 39, 104, 103, 39, 106, 104, 39, 116, 106, 39, 117, 116, 116, 117, 120, 117, 121, 120, 120, 121, 122, 130, 82, 83, 130, 83, 88, 130, 108, 109, 130, 113, 108, 130, 114, 113, 130, 119, 112, 130, 112, 111, 130, 115, 114, 130, 110, 115, 130, 111, 110, 39, 131, 117, 130, 105, 106, 130, 107, 105, 116, 130, 106, 130, 109, 107, 130, 88, 89, 130, 89, 90, 130, 90, 91, 130, 91, 92, 130, 92, 93, 130, 93, 94, 130, 94, 95, 130, 95, 96, 130, 96, 97, 130, 97, 98, 130, 100, 101, 130, 101, 99, 130, 98, 100, 130, 118, 119, 130, 99, 118, 116, 120, 132, 117, 133, 121, 121, 123, 122, 122, 123, 125, 123, 124, 125, 124, 127, 125, 120, 122, 134, 121, 135, 123, 122, 125, 137, 123, 136, 124, 124, 126, 127, 126, 128, 127, 126, 129, 128, 124, 138, 126, 125, 127, 139, 127, 128, 140, 126, 138, 129, 39, 53, 131, 52, 82, 130, 116, 132, 130, 117, 131, 133, 120, 134, 132, 121, 133, 135, 52, 130, 53, 53, 130, 131, 130, 132, 131, 131, 132, 133, 132, 134, 133, 123, 135, 136, 122, 137, 134, 125, 139, 137, 133, 134, 135, 134, 137, 135, 135, 137, 136, 136, 137, 139, 124, 136, 138, 127, 140, 139, 129, 138, 141, 136, 139, 138, 138, 139, 140, 138, 140, 141, 142, 143, 144, 143, 145, 144, 144, 145, 146, 145, 147, 146, 142, 144, 157, 143, 158, 145, 144, 146, 159, 145, 160, 147, 146, 152, 161, 148, 149, 150, 149, 156, 150, 149, 151, 156, 148, 163, 149, 149, 166, 151, 150, 156, 171, 152, 153, 154, 146, 147, 152, 147, 153, 152, 151, 154, 155, 153, 155, 154, 151, 155, 156, 152, 154, 167, 153, 168, 155, 147, 162, 153, 151, 169, 154, 155, 170, 156, 144, 159, 157, 145, 158, 160, 146, 161, 159, 147, 160, 162, 157, 159, 158, 158, 159, 160, 159, 161, 160, 160, 161, 162, 149, 163, 164, 149, 164, 166, 150, 171, 165, 163, 165, 164, 164, 165, 171, 164, 171, 166, 152, 167, 161, 153, 162, 168, 154, 169, 167, 151, 166, 169, 155, 168, 170, 156, 170, 171, 167, 169, 168, 161, 167, 162, 162, 167, 168, 166, 170, 169, 168, 169, 170, 166, 171, 170, 128, 129, 141, 128, 141, 140, 148, 150, 163, 150, 165, 163, 15, 17, 24, 17, 16, 29, 17, 29, 24, 16, 14, 36, 14, 13, 38, 82, 13, 12, 12, 18, 83, 18, 19, 88, 16, 36, 29, 19, 20, 89, 20, 21, 90, 21, 22, 91, 36, 14, 37, 22, 23, 92, 23, 25, 93, 25, 26, 94, 26, 27, 95, 27, 28, 96, 28, 30, 97, 30, 31, 98, 14, 38, 37, 13, 82, 38, 82, 12, 83, 83, 18, 88, 19, 89, 88, 20, 90, 89, 21, 91, 90, 31, 32, 100, 32, 33, 101, 33, 34, 99, 34, 35, 118, 35, 78, 119, 78, 79, 112, 22, 92, 91, 23, 93, 92, 25, 94, 93, 26, 95, 94, 27, 96, 95, 28, 97, 96, 30, 98, 97, 31, 100, 98, 32, 101, 100, 81, 84, 115, 79, 80, 111, 80, 81, 110, 84, 85, 114, 85, 86, 113, 34, 118, 99, 35, 119, 118, 33, 99, 101, 79, 111, 112, 78, 112, 119, 80, 110, 111, 81, 115, 110, 87, 102, 109, 86, 87, 108, 102, 103, 107, 84, 114, 115, 85, 113, 114, 86, 108, 113, 87, 109, 108, 103, 104, 105, 103, 105, 107, 102, 107, 109, 104, 106, 105]
                point3f[] points = [(-0.22814319, -0.049758293, -0.008), (-0.22390549, -0.04698697, -0.008), (-0.20732886, -0.072663836, -0.008), (-0.20419689, -0.0686757, -0.008), (-0.19395131, -0.079941735, -0.008), (-0.192111, -0.07525088, -0.008), (-0.24100317, -0.02101683, -0.008), (-0.23617193, -0.019572077, -0.008), (-0.24423341, -0.001056005, -0.008), (-0.23919563, -0.000887484, -0.008), (-0.16453424, -0.08743667, -0.008), (-0.1640001, -0.082413025, -0.008), (-0.14865856, -0.086147204, -0.008), (-0.14850868, -0.086294055, -0.008), (-0.1482593, -0.08644019, -0.008), (-0.14724606, -0.08678601, -0.008), (-0.14791098, -0.086585276, -0.008), (-0.1474646, -0.086728945, -0.008), (-0.14870855, -0.086, -0.008), (-0.14865856, -0.0858528, -0.008), (-0.14850868, -0.08570595, -0.008), (-0.1482593, -0.08555981, -0.008), (-0.14791098, -0.08541472, -0.008), (-0.1474646, -0.08527106, -0.008), (-0.14572959, -0.086728945, -0.007874275), (-0.1469212, -0.08512914, -0.008), (-0.14628214, -0.08498933, -0.008), (-0.14554891, -0.08485195, -0.008), (-0.14472328, -0.08471733, -0.008), (-0.1419122, -0.086585276, -0.0075653065), (-0.14380728, -0.08458581, -0.008), (-0.14280307, -0.084457695, -0.008), (-0.1417131, -0.08433329, -0.008), (-0.14053997, -0.08421291, -0.008), (-0.13928655, -0.08409682, -0.008), (-0.13795581, -0.08398532, -0.008), (-0.1381006, -0.086441815, -0.007264146), (-0.13809067, -0.08644019, -0.0072631435), (-0.1371984, -0.086294055, -0.0071804156), (-0.13860063, -0.0814571, -0.008), (-0.22814319, -0.049758293, 0.008), (-0.22390549, -0.04698697, 0.008), (-0.20732886, -0.072663836, 0.008), (-0.20419689, -0.0686757, 0.008), (-0.19395131, -0.079941735, 0.008), (-0.192111, -0.07525088, 0.008), (-0.24100317, -0.02101683, 0.008), (-0.23617193, -0.019572077, 0.008), (-0.24423341, -0.001056005, 0.008), (-0.23919563, -0.000887484, 0.008), (-0.16453424, -0.08743667, 0.008), (-0.1640001, -0.082413025, 0.008), (-0.1381006, -0.086441815, 0.008), (-0.13860063, -0.0814571, 0.008), (-0.24232411, 0.019291544, -0.008), (-0.23741624, 0.018075794, -0.008), (-0.22573589, 0.0463232, -0.008), (-0.23004672, 0.048982862, -0.008), (-0.21286227, 0.06883388, -0.008), (-0.2091926, 0.06543356, -0.008), (-0.20612739, 0.06852511, -0.008), (-0.20912212, 0.07260617, -0.008), (-0.19201611, 0.08143452, -0.008), (-0.19030575, 0.0766906, -0.008), (-0.16737592, 0.086831346, -0.008), (-0.16692, 0.08181267, -0.008), (-0.24232411, 0.019291544, 0.008), (-0.23741624, 0.018075794, 0.008), (-0.22573589, 0.0463232, 0.008), (-0.23004672, 0.048982862, 0.008), (-0.21286227, 0.06883388, 0.008), (-0.2091926, 0.06543356, 0.008), (-0.20612739, 0.06852511, 0.008), (-0.20912212, 0.07260617, 0.008), (-0.19201611, 0.08143452, 0.008), (-0.19030575, 0.0766906, 0.008), (-0.16737592, 0.086831346, 0.008), (-0.16692, 0.08181267, 0.008), (-0.13655098, -0.08387868, -0.008), (-0.13507544, -0.083777145, -0.008), (-0.13353275, -0.08368097, -0.008), (-0.13192663, -0.08359038, -0.008), (-0.13630183, -0.086147204, -0.007104585), (-0.13540308, -0.086, -0.007035835), (-0.13026091, -0.08350559, -0.008), (-0.12853965, -0.08342681, -0.008), (-0.126767, -0.083354235, -0.008), (-0.1249472, -0.08328803, -0.008), (-0.13450433, -0.0858528, -0.006974332), (-0.13360776, -0.08570595, -0.0069202227), (-0.1327155, -0.08555981, -0.006873639), (-0.13182971, -0.08541472, -0.006834691), (-0.13095255, -0.08527106, -0.0068034744), (-0.1300861, -0.08512914, -0.0067800637), (-0.12923245, -0.08498933, -0.0067645153), (-0.12839368, -0.08485195, -0.006756867), (-0.12757178, -0.08471733, -0.006757137), (-0.12676875, -0.08458581, -0.0067653246), (-0.12598653, -0.084457695, -0.00678141), (-0.12378323, -0.08409682, -0.0068765716), (-0.12522699, -0.08433329, -0.0068053547), (-0.12449197, -0.08421291, -0.0068371007), (-0.123084635, -0.083228365, -0.008), (-0.121183805, -0.08317537, -0.008), (-0.1192493, -0.08312918, -0.008), (-0.11787531, -0.08312918, -0.0079004355), (-0.11768418, -0.083097875, -0.008), (-0.11815731, -0.08317537, -0.0077806883), (-0.11884519, -0.08328803, -0.007557825), (-0.11848087, -0.083228365, -0.007666393), (-0.12069115, -0.08359038, -0.007185836), (-0.12124425, -0.08368097, -0.0071095293), (-0.12183147, -0.083777145, -0.0070402916), (-0.11924939, -0.083354235, -0.007455246), (-0.11969251, -0.08342681, -0.0073589026), (-0.120173484, -0.08350559, -0.0072690267), (-0.11409581, -0.08251014, -0.008), (-0.115157075, -0.07761735, -0.008), (-0.123102486, -0.08398532, -0.0069236723), (-0.12245138, -0.08387868, -0.0069782897), (-0.095041215, -0.077342235, -0.008), (-0.09653138, -0.07256576, -0.008), (-0.06353171, -0.06619691, -0.008), (-0.065756746, -0.06168037, -0.008), (-0.04621168, -0.04900024, -0.008), (-0.04258282, -0.052606035, -0.008), (-0.036078863, -0.033161324, -0.008), (-0.031438798, -0.035186462, -0.008), (-0.029999997, -0.029642444, -0.008), (-0.029999997, -0.009738097, -0.008), (-0.11409581, -0.08251014, 0.008), (-0.115157075, -0.07761735, 0.008), (-0.095041215, -0.077342235, 0.008), (-0.09653138, -0.07256576, 0.008), (-0.06353171, -0.06619691, 0.008), (-0.065756746, -0.06168037, 0.008), (-0.04621168, -0.04900024, 0.008), (-0.04258282, -0.052606035, 0.008), (-0.036078863, -0.033161324, 0.008), (-0.031438798, -0.035186462, 0.008), (-0.029999997, -0.029642444, 0.008), (-0.029999997, -0.009738097, 0.008), (-0.13586041, 0.08074291, -0.008), (-0.13519377, 0.085722916, -0.008), (-0.10315879, 0.07302664, -0.008), (-0.10187343, 0.07786065, -0.008), (-0.09299415, 0.07001494, -0.008), (-0.09147972, 0.07478108, -0.008), (-0.029999997, 0.005816197, -0.008), (-0.030115817, 0.008919673, -0.008), (-0.029999997, 0.02474848, -0.008), (-0.040819183, 0.041872602, -0.008), (-0.065253146, 0.06059758, -0.008), (-0.06290118, 0.0650794, -0.008), (-0.05169004, 0.050514393, -0.008), (-0.04864199, 0.054478727, -0.008), (-0.036528952, 0.044849463, -0.008), (-0.13586041, 0.08074291, 0.008), (-0.13519377, 0.085722916, 0.008), (-0.10315879, 0.07302664, 0.008), (-0.10187343, 0.07786065, 0.008), (-0.09299415, 0.07001494, 0.008), (-0.09147972, 0.07478108, 0.008), (-0.029999997, 0.005816197, 0.008), (-0.030115817, 0.008919673, 0.008), (-0.029999997, 0.02474848, 0.008), (-0.040819183, 0.041872602, 0.008), (-0.065253146, 0.06059758, 0.008), (-0.06290118, 0.0650794, 0.008), (-0.05169004, 0.050514393, 0.008), (-0.04864199, 0.054478727, 0.008), (-0.036528952, 0.044849463, 0.008)]
            }

            over "ForeheadBridge" (
                active = false
            )
            {
                float3[] extent = [(-0.03, -0.012, -0.007), (-0.026676485, 0.012, 0.007)]
                int[] faceVertexCounts = [4, 4, 4, 4, 4, 4]
                int[] faceVertexIndices = [0, 1, 3, 2, 4, 6, 7, 5, 0, 4, 5, 1, 2, 3, 7, 6, 0, 2, 6, 4, 1, 5, 7, 3]
                point3f[] points = [(-0.026676485, -0.012, -0.007), (-0.026676485, -0.012, 0.007), (-0.026676485, 0.012, -0.007), (-0.026676485, 0.012, 0.007), (-0.03, -0.012, -0.007), (-0.03, -0.012, 0.007), (-0.03, 0.012, -0.007), (-0.03, 0.012, 0.007)]
            }
        }
    }

    over "WorkerAppearance"
    {
        over "vest"
        {
            token outputs:surface.connect = </World/WorkerAppearance/vest/Surface.outputs:surface>

            over "Surface"
            {
                uniform token info:id = "UsdPreviewSurface"
                color3f inputs:diffuseColor = (0.95, 0.31, 0.025)
                float inputs:roughness = 0.65
            }
        }

        over "workpants"
        {
            token outputs:surface.connect = </World/WorkerAppearance/workpants/Surface.outputs:surface>

            over "Surface"
            {
                uniform token info:id = "UsdPreviewSurface"
                color3f inputs:diffuseColor = (0.025, 0.065, 0.12)
                float inputs:roughness = 0.65
            }
        }

        over "tshirt"
        {
            token outputs:surface.connect = </World/WorkerAppearance/tshirt/Surface.outputs:surface>

            over "Surface"
            {
                uniform token info:id = "UsdPreviewSurface"
                color3f inputs:diffuseColor = (0.08, 0.14, 0.22)
                float inputs:roughness = 0.65
            }
        }

        over "boots"
        {
            token outputs:surface.connect = </World/WorkerAppearance/boots/Surface.outputs:surface>

            over "Surface"
            {
                uniform token info:id = "UsdPreviewSurface"
                color3f inputs:diffuseColor = (0.035, 0.035, 0.04)
                float inputs:roughness = 0.65
            }
        }

        over "gloves"
        {
            token outputs:surface.connect = </World/WorkerAppearance/gloves/Surface.outputs:surface>

            over "Surface"
            {
                uniform token info:id = "UsdPreviewSurface"
                color3f inputs:diffuseColor = (0.3, 0.32, 0.34)
                float inputs:roughness = 0.65
            }
        }

        over "hardhat"
        {
            token outputs:surface.connect = </World/WorkerAppearance/hardhat/Surface.outputs:surface>

            over "Surface"
            {
                uniform token info:id = "UsdPreviewSurface"
                color3f inputs:diffuseColor = (1, 0.69, 0.025)
                float inputs:roughness = 0.65
            }
        }

        over "reflective"
        {
            token outputs:surface.connect = </World/WorkerAppearance/reflective/Surface.outputs:surface>

            over "Surface"
            {
                uniform token info:id = "UsdPreviewSurface"
                color3f inputs:diffuseColor = (0.74, 0.77, 0.8)
                float inputs:roughness = 0.65
            }
        }
    }
}
